# xmcd CD database file
#
# Track frame offsets:
#	150
#	17318
#	38469
#	62318
#	91984
#	112388
#	131990
#	153492
#	173891
#	192000
#
# Disc length: 2802 seconds
#
# Revision: 0
# Processed by: cddbd v1.5.2PL0 Copyright (c) Steve Scherf et al.
# Submitted via: CDex 1.70beta2
#
DISCID=780af00a
DTITLE=Gerry Wall - Ex Patriots Day
DYEAR=2007
DGENRE=Blues
TTITLE0=Cheticamp
TTITLE1=Ex Patriots Day
TTITLE2=Hello Ansterdam
TTITLE3=Home by Sunday
TTITLE4=Anselana
TTITLE5=Are You Making Friends
TTITLE6=Lost at Home
TTITLE7=Stalin and Babba Looey
TTITLE8=Willow Bluff V2
TTITLE9=Tiny Letters
EXTD=YEAR: 2007
EXTT0=
EXTT1=
EXTT2=
EXTT3=
EXTT4=
EXTT5=
EXTT6=
EXTT7=
EXTT8=
EXTT9=
PLAYORDER=
